<svg width="800" height="400" viewBox="0 0 800 400" fill="none" xmlns="http://www.w3.org/2000/svg">
  <!-- 배경 -->
  <rect width="800" height="400" rx="20" fill="#F5F5F5" fill-opacity="0.1"/>
  
  <!-- 메인 디바이스 -->
  <rect x="200" y="80" width="400" height="260" rx="10" fill="#FFFFFF" stroke="#E0E0E0" stroke-width="2"/>
  <rect x="200" y="80" width="400" height="30" rx="10" fill="#F5F5F5"/>
  <circle cx="220" cy="95" r="5" fill="#FF6B6B"/>
  <circle cx="240" cy="95" r="5" fill="#FFD93D"/>
  <circle cx="260" cy="95" r="5" fill="#6BCB77"/>
  
  <!-- 학습 차트/그래프 요소 -->
  <rect x="240" y="140" width="320" height="80" rx="5" fill="#4285F4" fill-opacity="0.1"/>
  <path d="M240 180 L290 165 L340 185 L390 150 L440 180 L490 160 L540 170 L560 170" stroke="#4285F4" stroke-width="3" stroke-linecap="round"/>
  
  <!-- 학습 카드/요소들 -->
  <rect x="240" y="240" width="140" height="70" rx="5" fill="#34A853" fill-opacity="0.1" stroke="#34A853" stroke-width="1"/>
  <rect x="420" y="240" width="140" height="70" rx="5" fill="#FBBC05" fill-opacity="0.1" stroke="#FBBC05" stroke-width="1"/>
  
  <!-- 작은 UI 요소들 -->
  <circle cx="290" cy="275" r="20" fill="#34A853" fill-opacity="0.3"/>
  <rect x="330" y="265" width="40" height="8" rx="4" fill="#34A853"/>
  <rect x="330" y="280" width="30" height="8" rx="4" fill="#34A853" fill-opacity="0.5"/>
  
  <circle cx="470" cy="275" r="20" fill="#FBBC05" fill-opacity="0.3"/>
  <rect x="510" y="265" width="40" height="8" rx="4" fill="#FBBC05"/>
  <rect x="510" y="280" width="30" height="8" rx="4" fill="#FBBC05" fill-opacity="0.5"/>
  
  <!-- AI 요소 표현 -->
  <circle cx="400" cy="60" r="30" fill="#4285F4" fill-opacity="0.2"/>
  <path d="M385 60 L400 45 L415 60 L400 75 L385 60" fill="#4285F4"/>
  
  <!-- 연결선 -->
  <path d="M400 90 L400 130" stroke="#4285F4" stroke-width="2" stroke-dasharray="4 4"/>
  <path d="M340 220 L340 240" stroke="#34A853" stroke-width="2" stroke-dasharray="4 4"/>
  <path d="M460 220 L460 240" stroke="#FBBC05" stroke-width="2" stroke-dasharray="4 4"/>
  
  <!-- 장식 요소 -->
  <circle cx="160" cy="150" r="40" fill="#4285F4" fill-opacity="0.1"/>
  <circle cx="640" cy="150" r="40" fill="#4285F4" fill-opacity="0.1"/>
  <circle cx="160" cy="280" r="30" fill="#34A853" fill-opacity="0.1"/>
  <circle cx="640" cy="280" r="30" fill="#FBBC05" fill-opacity="0.1"/>
</svg> 